<?xml version="1.0" encoding="UTF-8"?> <svg xmlns="http://www.w3.org/2000/svg" width="1754" height="1240" viewBox="0 0 1754 1240" fill="none"> <g clip-path="url(#clip0_51_562)"> <rect width="1754" height="1240" fill="#372579"></rect> <g clip-path="url(#clip1_51_562)"> <path d="M511.63 0.909067C505.306 13.1851 499.354 25.8331 493.03 38.1091C453.226 118.089 413.05 198.069 373.246 278.049C362.458 299.253 338.278 312.645 314.469 310.785C289.545 308.925 272.805 296.277 261.645 274.329C217.377 186.909 173.109 99.4891 128.469 12.4411C127.353 10.2091 126.237 8.34907 125.121 6.11707C124.749 6.11707 124.377 6.11707 124.005 6.11707C124.005 7.97707 124.005 9.46508 124.005 11.3251C124.005 97.2571 124.005 183.189 124.005 269.121C124.005 285.861 119.913 300.741 108.38 313.017C91.2684 331.617 69.6923 337.197 45.8842 330.873C22.4481 324.549 7.56803 308.925 1.98801 285.117C0.872002 280.281 0.5 275.445 0.5 270.609C0.5 104.325 0.5 -61.9589 0.5 -228.243C0.5 -258.375 18.7281 -282.183 46.6282 -289.251C75.6443 -296.319 103.916 -283.299 117.681 -256.143C176.457 -140.823 235.233 -25.1309 293.637 90.1891C301.821 106.185 310.005 122.181 318.189 138.177C318.933 139.293 319.677 140.781 320.793 142.641C321.909 140.781 322.653 139.293 323.397 137.433C388.498 6.48905 453.226 -124.827 518.326 -255.771C529.486 -278.463 548.087 -291.111 573.755 -291.111C597.935 -291.111 616.535 -280.323 628.811 -259.119C634.019 -250.191 635.879 -240.147 635.879 -229.731C635.879 -86.139 635.879 57.4531 635.879 200.673C635.879 224.481 635.879 248.661 635.879 272.469C635.879 301.485 613.187 327.525 584.171 331.989C553.667 336.825 524.278 319.341 515.722 290.697C513.49 283.629 512.746 276.189 512.746 268.749C512.374 181.329 512.746 93.5371 512.746 6.11707C512.746 4.25707 512.746 2.39707 512.746 0.537072C512.374 0.909073 512.002 0.909067 511.63 0.909067Z" fill="#28176A"></path> </g> <g clip-path="url(#clip2_51_562)"> <path d="M571.036 115.942C571.036 118.918 571.036 120.778 571.036 123.01C571.036 269.206 571.036 415.03 571.036 561.226C571.036 582.43 563.224 599.914 546.112 612.562C510.772 638.23 455.716 621.118 448.276 572.386C447.532 567.922 447.904 563.086 447.904 558.622C447.904 413.542 447.904 268.462 447.904 123.01C447.904 115.198 448.276 116.314 441.208 116.314C396.94 116.314 352.672 116.314 308.777 116.314C297.245 116.314 286.085 114.082 275.669 108.13C255.953 96.598 248.141 78.37 248.513 56.422C249.257 27.778 267.485 6.946 295.757 1.366C300.221 0.622001 304.685 0.25 309.149 0.25C442.696 0.25 575.872 0.25 709.42 0.25C741.784 0.25 762.244 22.198 767.452 41.542C778.24 80.23 751.456 115.942 710.536 116.314C666.268 116.314 622 116.314 577.732 116.314C575.5 115.942 573.64 115.942 571.036 115.942Z" fill="#28176A"></path> </g> <g clip-path="url(#clip3_51_562)"> <path d="M271.071 194.349C264.747 206.625 258.795 219.273 252.471 231.549C212.667 311.529 172.49 391.509 132.686 471.489C121.898 492.693 97.718 506.085 73.9099 504.225C48.9858 502.365 32.2457 489.717 21.0856 467.769C-23.1826 380.349 -67.4508 292.929 -112.091 205.881C-113.207 203.649 -114.323 201.789 -115.439 199.557C-115.811 199.557 -116.183 199.557 -116.555 199.557C-116.555 201.417 -116.555 202.905 -116.555 204.765C-116.555 290.697 -116.555 376.629 -116.555 462.561C-116.555 479.301 -120.647 494.181 -132.179 506.457C-149.291 525.057 -170.867 530.637 -194.675 524.313C-218.111 517.989 -232.992 502.365 -238.572 478.557C-239.688 473.721 -240.06 468.885 -240.06 464.049C-240.06 297.765 -240.06 131.481 -240.06 -34.803C-240.06 -64.935 -221.831 -88.743 -193.931 -95.811C-164.915 -102.879 -136.643 -89.8591 -122.879 -62.703C-64.1028 52.617 -5.32649 168.309 53.0778 283.629C61.2618 299.625 69.4458 315.621 77.6299 331.617C78.3739 332.733 79.1179 334.221 80.2339 336.081C81.3499 334.221 82.0939 332.733 82.8379 330.873C147.938 199.929 212.666 68.613 277.767 -62.331C288.927 -85.023 307.527 -97.671 333.195 -97.671C357.375 -97.671 375.975 -86.883 388.251 -65.679C393.459 -56.751 395.319 -46.707 395.319 -36.291C395.319 107.301 395.319 250.893 395.319 394.113C395.319 417.921 395.319 442.101 395.319 465.909C395.319 494.925 372.627 520.965 343.611 525.429C313.107 530.265 283.719 512.781 275.163 484.137C272.931 477.069 272.187 469.629 272.187 462.189C271.815 374.769 272.187 286.977 272.187 199.557C272.187 197.697 272.187 195.837 272.187 193.977C271.815 194.349 271.443 194.349 271.071 194.349Z" fill="#28176A"></path> </g> <g clip-path="url(#clip4_51_562)"> <path d="M371.396 363.942C371.396 366.918 371.396 368.778 371.396 371.01C371.396 517.206 371.396 663.03 371.396 809.226C371.396 830.43 363.585 847.914 346.473 860.562C311.133 886.23 256.077 869.118 248.637 820.386C247.893 815.922 248.265 811.086 248.265 806.622C248.265 661.542 248.265 516.462 248.265 371.01C248.265 363.198 248.637 364.314 241.569 364.314C197.301 364.314 153.033 364.314 109.137 364.314C97.6049 364.314 86.4449 362.082 76.0289 356.13C56.3129 344.598 48.501 326.37 48.873 304.422C49.617 275.778 67.845 254.946 96.1169 249.366C100.581 248.622 105.045 248.25 109.509 248.25C243.057 248.25 376.233 248.25 509.78 248.25C542.144 248.25 562.604 270.198 567.812 289.542C578.6 328.23 551.816 363.942 510.896 364.314C466.628 364.314 422.36 364.314 378.093 364.314C375.861 363.942 374 363.942 371.396 363.942Z" fill="#28176A"></path> </g> <g clip-path="url(#clip5_51_562)"> <path d="M124.75 582.469C118.426 594.745 112.474 607.393 106.15 619.669C66.3462 699.649 26.17 779.629 -13.6342 859.609C-24.4222 880.813 -48.6023 894.205 -72.4104 892.345C-97.3346 890.485 -114.075 877.837 -125.235 855.889C-169.503 768.469 -213.771 681.049 -258.411 594.001C-259.527 591.769 -260.643 589.909 -261.759 587.677C-262.131 587.677 -262.503 587.677 -262.875 587.677C-262.875 589.537 -262.875 591.025 -262.875 592.885C-262.875 678.817 -262.875 764.749 -262.875 850.681C-262.875 867.421 -266.967 882.301 -278.499 894.577C-295.611 913.177 -317.188 918.757 -340.996 912.433C-364.432 906.109 -379.312 890.485 -384.892 866.677C-386.008 861.841 -386.38 857.005 -386.38 852.169C-386.38 685.885 -386.38 519.601 -386.38 353.317C-386.38 323.185 -368.152 299.377 -340.252 292.309C-311.236 285.241 -282.963 298.261 -269.199 325.417C-210.423 440.737 -151.647 556.429 -93.2425 671.749C-85.0585 687.745 -76.8745 703.741 -68.6904 719.737C-67.9464 720.853 -67.2024 722.341 -66.0864 724.201C-64.9704 722.341 -64.2264 720.853 -63.4824 718.993C1.6179 588.049 66.3462 456.733 131.446 325.789C142.607 303.097 161.207 290.449 186.875 290.449C211.055 290.449 229.655 301.237 241.931 322.441C247.139 331.369 248.999 341.413 248.999 351.829C248.999 495.421 248.999 639.013 248.999 782.233C248.999 806.041 248.999 830.221 248.999 854.029C248.999 883.045 226.307 909.085 197.291 913.549C166.787 918.385 137.399 900.901 128.842 872.257C126.61 865.189 125.866 857.749 125.866 850.309C125.494 762.889 125.866 675.097 125.866 587.677C125.866 585.817 125.866 583.957 125.866 582.097C125.494 582.469 125.122 582.469 124.75 582.469Z" fill="#28176A"></path> </g> <g clip-path="url(#clip6_51_562)"> <path d="M69.3588 868.499C81.6348 874.823 94.2828 880.775 106.559 887.099C186.539 926.903 266.519 967.079 346.499 1006.88C367.703 1017.67 381.095 1041.85 379.235 1065.66C377.375 1090.58 364.727 1107.32 342.779 1118.48C255.359 1162.75 167.939 1207.02 80.8908 1251.66C78.6588 1252.78 76.7988 1253.89 74.5668 1255.01C74.5668 1255.38 74.5668 1255.75 74.5668 1256.12C76.4268 1256.12 77.9148 1256.12 79.7748 1256.12C165.707 1256.12 251.639 1256.12 337.571 1256.12C354.311 1256.12 369.191 1260.22 381.467 1271.75C400.067 1288.86 405.647 1310.44 399.323 1334.24C392.999 1357.68 377.375 1372.56 353.567 1378.14C348.731 1379.26 343.895 1379.63 339.059 1379.63C172.775 1379.63 6.49076 1379.63 -159.793 1379.63C-189.925 1379.63 -213.733 1361.4 -220.801 1333.5C-227.869 1304.48 -214.849 1276.21 -187.693 1262.45C-72.3733 1203.67 43.3188 1144.9 158.639 1086.49C174.635 1078.31 190.631 1070.12 206.627 1061.94C207.743 1061.2 209.231 1060.45 211.091 1059.34C209.231 1058.22 207.743 1057.48 205.883 1056.73C74.9388 991.631 -56.3772 926.903 -187.321 861.803C-210.013 850.643 -222.661 832.042 -222.661 806.374C-222.661 782.194 -211.873 763.594 -190.669 751.318C-181.741 746.11 -171.697 744.25 -161.281 744.25C-17.6892 744.25 125.903 744.25 269.123 744.25C292.931 744.25 317.111 744.25 340.919 744.25C369.935 744.25 395.975 766.942 400.439 795.958C405.275 826.462 387.791 855.851 359.147 864.407C352.079 866.639 344.639 867.383 337.199 867.383C249.779 867.755 161.987 867.383 74.5668 867.383C72.7068 867.383 70.8468 867.383 68.9868 867.383C69.3588 867.755 69.3588 868.127 69.3588 868.499Z" fill="#28176A"></path> </g> <g clip-path="url(#clip7_51_562)"> <path d="M-19.9215 923.058C-7.64549 929.382 5.00251 935.334 17.2785 941.658C97.2585 981.462 177.239 1021.64 257.219 1061.44C278.423 1072.23 291.815 1096.41 289.955 1120.22C288.095 1145.14 275.447 1161.88 253.499 1173.04C166.079 1217.31 78.6585 1261.58 -8.3895 1306.22C-10.6215 1307.34 -12.4815 1308.45 -14.7135 1309.57C-14.7135 1309.94 -14.7135 1310.31 -14.7135 1310.68C-12.8535 1310.68 -11.3655 1310.68 -9.50548 1310.68C76.4265 1310.68 162.359 1310.68 248.291 1310.68C265.031 1310.68 279.911 1314.78 292.187 1326.31C310.787 1343.42 316.367 1365 310.043 1388.8C303.719 1412.24 288.095 1427.12 264.287 1432.7C259.451 1433.82 254.615 1434.19 249.779 1434.19C83.4945 1434.19 -82.7895 1434.19 -249.074 1434.19C-279.206 1434.19 -303.014 1415.96 -310.082 1388.06C-317.15 1359.04 -304.13 1330.77 -276.974 1317.01C-161.654 1258.23 -45.9615 1199.46 69.3585 1141.05C85.3545 1132.87 101.351 1124.68 117.347 1116.5C118.463 1115.76 119.951 1115.01 121.811 1113.89C119.951 1112.78 118.463 1112.04 116.603 1111.29C-14.3415 1046.19 -145.658 981.462 -276.602 916.362C-299.294 905.202 -311.942 886.602 -311.942 860.934C-311.942 836.754 -301.154 818.154 -279.95 805.878C-271.022 800.67 -260.978 798.81 -250.562 798.81C-106.97 798.81 36.6225 798.81 179.843 798.81C203.651 798.81 227.831 798.81 251.639 798.81C280.655 798.81 306.695 821.502 311.159 850.518C315.995 881.022 298.511 910.41 269.867 918.966C262.799 921.198 255.359 921.942 247.919 921.942C160.499 922.314 72.7065 921.942 -14.7135 921.942C-16.5735 921.942 -18.4335 921.942 -20.2935 921.942C-19.9215 922.314 -19.9215 922.686 -19.9215 923.058Z" fill="#28176A"></path> </g> <g clip-path="url(#clip8_51_562)"> <path d="M409.566 880.524C407.461 882.628 406.146 883.944 404.568 885.522C301.192 988.898 198.078 1092.01 94.7022 1195.39C79.7087 1210.38 61.8218 1217.22 40.7783 1214.06C-2.36085 1207.22 -29.1912 1156.19 0.00662041 1116.47C2.63706 1112.79 6.31965 1109.64 9.47617 1106.48C112.063 1003.89 214.65 901.305 317.5 798.455C323.024 792.931 322.498 793.983 317.5 788.985C286.198 757.683 254.896 726.381 223.857 695.342C215.703 687.187 209.39 677.718 206.233 666.144C200.446 644.048 207.811 625.635 223.594 610.378C244.374 590.65 271.994 588.809 295.931 604.854C299.614 607.485 303.033 610.378 306.19 613.535C400.622 707.967 494.792 802.137 589.224 896.57C612.109 919.454 611.057 949.441 601.061 966.802C581.333 1001.79 537.142 1008.1 507.944 979.428C476.642 948.126 445.34 916.824 414.037 885.522C412.722 883.681 411.407 882.365 409.566 880.524Z" fill="#28176A"></path> </g> <g clip-path="url(#clip9_51_562)"> <path d="M434.636 637.982C434.636 640.958 434.636 642.818 434.636 645.05C434.636 791.246 434.636 937.07 434.636 1083.27C434.636 1104.47 426.824 1121.95 409.712 1134.6C374.372 1160.27 319.316 1143.16 311.876 1094.43C311.132 1089.96 311.504 1085.13 311.504 1080.66C311.504 935.582 311.504 790.502 311.504 645.05C311.504 637.238 311.876 638.354 304.808 638.354C260.54 638.354 216.272 638.354 172.376 638.354C160.844 638.354 149.684 636.122 139.268 630.17C119.552 618.638 111.74 600.41 112.112 578.462C112.856 549.818 131.084 528.986 159.356 523.406C163.82 522.662 168.284 522.29 172.748 522.29C306.296 522.29 439.472 522.29 573.02 522.29C605.384 522.29 625.844 544.238 631.052 563.582C641.84 602.27 615.055 637.982 574.136 638.354C529.868 638.354 485.6 638.354 441.332 638.354C439.1 637.982 437.24 637.982 434.636 637.982Z" fill="#28176A"></path> </g> <g clip-path="url(#clip10_51_562)"> <path d="M755.019 1026.31C769.956 1039.56 784.007 1051.79 798.322 1064.49C866.615 1124.38 935.172 1184.73 1003.37 1244.98C1008.71 1249.49 1013.49 1254.62 1017.37 1260.28C1030.5 1278.82 1030.98 1298.59 1020.37 1318.09C1016.84 1324.07 1012.49 1330.23 1007.72 1335.11C988.884 1355.09 963.936 1357.65 940.998 1342.65C937.071 1340.06 933.241 1337.1 929.866 1333.89C813.913 1231.96 698.056 1129.67 582.103 1027.73C554.359 1003.35 530.19 975.696 512.977 942.2C499.613 915.897 492.41 888.163 495.248 858.884C498.723 818.607 516.52 785.249 547.63 759.694C565.931 744.572 587.19 741.41 608.383 752.866C628.595 763.673 640.58 780.749 640.359 804.567C640.242 822.252 633.754 837.843 621.542 850.361C611.441 860.749 610.349 872.01 615.007 884.812C621.05 901.065 631.29 914.593 643.448 926.708C648.331 931.483 652.732 938.054 658.481 939.594C663.871 941.038 671.065 937.189 676.962 935.303C804.753 896.757 932.544 858.21 1060.43 819.304C1070.04 816.488 1079.82 814.487 1089.91 815.649C1104.14 817.152 1115.49 823.659 1123.96 835.171C1135.25 850.521 1139.83 867.923 1137.8 887.019C1135.57 906.834 1124.05 921.078 1105.78 928.891C1094.97 933.312 1083.37 936.365 1072.12 939.515C968.596 968.002 864.708 996.393 761.275 1024.52C758.831 1025.02 757.56 1025.45 755.019 1026.31Z" fill="#28176A"></path> </g> <g clip-path="url(#clip11_51_562)"> <path d="M578.206 1020.64C576.102 1022.75 574.787 1024.06 573.208 1025.64C469.832 1129.02 366.719 1232.13 263.343 1335.51C248.349 1350.5 230.462 1357.34 209.419 1354.18C166.28 1347.34 139.449 1296.31 168.647 1256.59C171.278 1252.91 174.96 1249.76 178.117 1246.6C280.704 1144.01 383.291 1041.42 486.141 938.575C491.665 933.051 491.139 934.103 486.141 929.105C454.839 897.803 423.537 866.501 392.498 835.462C384.343 827.307 378.03 817.838 374.874 806.264C369.087 784.168 376.452 765.755 392.235 750.499C413.015 730.77 440.635 728.929 464.572 744.975C468.254 747.605 471.674 750.498 474.83 753.655C569.263 848.088 663.432 942.257 757.865 1036.69C780.75 1059.57 779.698 1089.56 769.702 1106.92C749.974 1141.91 705.782 1148.22 676.584 1119.55C645.282 1088.25 613.98 1056.94 582.678 1025.64C581.363 1023.8 580.047 1022.49 578.206 1020.64Z" fill="#28176A"></path> </g> <g clip-path="url(#clip12_51_562)"> <path d="M689.1 602.07C692.906 596.965 696.205 591.997 700.011 586.892C733.687 536.748 779.887 502.855 835.353 481.185C842.009 478.584 849.495 476.034 856.695 475.466C880.008 473.032 898.979 481.837 911.304 501.41C924.087 521.677 922.977 542.943 911.073 563.561C903.447 576.77 891.596 585.392 877.454 590.543C854.946 599.025 833.304 609.725 815.973 626.351C797.068 644.216 782.623 665.515 772.552 688.91C737.019 772.775 758.579 863.401 828.916 921.621C881.139 965.088 941.414 982.706 1009.07 968.934C1054.47 959.493 1092.5 936.776 1120.91 899.482C1147.5 864.579 1160.55 824.863 1160.33 781.351C1160.2 769.677 1159.55 758.139 1158.91 746.6C1157.07 724.49 1164.03 705.742 1181.86 691.979C1200.19 678.08 1220.27 676.785 1240.99 687.028C1261.38 697.086 1272.38 713.746 1274.87 736.227C1281.18 789.272 1276.06 841.296 1255.91 891.085C1216.2 988.867 1146.74 1054.86 1044.23 1082.88C983.575 1099.4 922.912 1096.59 863.617 1076.53C831.274 1065.59 800.842 1050.6 773.385 1030.45C676.345 958.962 631.785 862.79 640.35 742.307C643.151 703.976 654.477 667.99 672.025 633.877C672.955 632.267 673.376 630.792 673.984 628.995C678.87 619.789 683.892 611.09 689.1 602.07Z" fill="#28176A"></path> </g> <g clip-path="url(#clip13_51_562)"> <path d="M871.195 777.217C870.587 775.42 870.165 773.946 869.557 772.149C860.068 744.553 871.15 715.388 897.059 700C921.494 685.034 952.886 688.816 972.127 709.494C976.578 714.227 980.248 719.839 983.41 725.316C1040.88 824.864 1098.36 924.412 1155.83 1023.96C1156.76 1025.57 1157.69 1027.18 1158.62 1028.79C1158.94 1028.61 1159.45 1028.74 1159.77 1028.56C1160.18 1027.03 1160.41 1025.19 1160.81 1023.66C1187.07 858.589 1213.33 693.516 1239.91 528.258C1244.04 502.677 1259.7 485.904 1284.07 478.275C1307.48 471.203 1329.1 475.906 1346.85 494.006C1350.74 497.773 1353.35 502.283 1356.14 507.115C1439.28 651.122 1522.28 795.636 1606.07 939.27C1627.65 976.641 1605.02 1024.5 1561.18 1032.63C1538.26 1036.84 1513.57 1025.32 1501.35 1004.89C1493.4 991.865 1486.28 978.793 1478.65 965.584C1427.32 876.668 1375.8 787.429 1324.46 698.512C1323.53 696.902 1322.79 695.613 1321.11 692.714C1320.62 695.576 1320.21 697.101 1319.8 698.625C1293.08 864.392 1266.37 1030.16 1239.79 1195.42C1233.1 1236.65 1190.98 1259.68 1153.16 1243.28C1144.61 1239.63 1137.43 1233.89 1131.5 1226.58C1130.94 1225.62 1129.73 1225.02 1128.85 1224.24C1043.24 1075.22 957.313 926.378 871.195 777.217Z" fill="#28176A"></path> </g> <g clip-path="url(#clip14_51_562)"> <path d="M638.456 1073.43C653.393 1086.68 667.445 1098.91 681.759 1111.61C750.053 1171.5 818.61 1231.85 886.807 1292.1C892.145 1296.61 896.932 1301.74 900.807 1307.4C913.94 1325.94 914.42 1345.71 903.805 1365.21C900.275 1371.19 895.931 1377.35 891.156 1382.23C872.322 1402.21 847.374 1404.77 824.435 1389.77C820.509 1387.18 816.678 1384.22 813.303 1381.01C697.35 1279.08 581.493 1176.79 465.54 1074.85C437.797 1050.47 413.628 1022.82 396.414 989.32C383.051 963.017 375.847 935.283 378.686 906.005C382.161 865.728 399.957 832.369 431.067 806.814C449.369 791.692 470.627 788.53 491.821 799.986C512.032 810.793 524.017 827.869 523.797 851.687C523.68 869.372 517.191 884.963 504.979 897.481C494.879 907.869 493.787 919.13 498.444 931.932C504.487 948.186 514.727 961.713 526.886 973.829C531.768 978.603 536.17 985.174 541.919 986.714C547.309 988.159 554.502 984.309 560.399 982.423C688.19 943.877 815.981 905.33 943.868 866.424C953.481 863.608 963.26 861.607 973.347 862.769C987.579 864.272 998.929 870.779 1007.4 882.292C1018.69 897.641 1023.27 915.044 1021.23 934.139C1019.01 953.954 1007.49 968.198 989.218 976.012C978.406 980.432 966.804 983.485 955.562 986.635C852.033 1015.12 748.145 1043.51 644.713 1071.64C642.268 1072.14 640.997 1072.57 638.456 1073.43Z" fill="#28176A"></path> </g> <g clip-path="url(#clip15_51_562)"> <path d="M689.1 762.03C692.906 756.925 696.205 751.956 700.011 746.852C733.687 696.708 779.887 662.815 835.353 641.145C842.009 638.544 849.495 635.994 856.695 635.426C880.008 632.992 898.979 641.797 911.304 661.37C924.087 681.637 922.977 702.903 911.073 723.521C903.447 736.73 891.596 745.352 877.454 750.503C854.946 758.985 833.304 769.685 815.973 786.311C797.068 804.176 782.623 825.475 772.552 848.87C737.019 932.735 758.579 1023.36 828.916 1081.58C881.139 1125.05 941.414 1142.67 1009.07 1128.89C1054.47 1119.45 1092.5 1096.74 1120.91 1059.44C1147.5 1024.54 1160.55 984.823 1160.33 941.311C1160.2 929.637 1159.55 918.099 1158.91 906.56C1157.07 884.45 1164.03 865.702 1181.86 851.939C1200.19 838.04 1220.27 836.745 1240.99 846.988C1261.38 857.046 1272.38 873.705 1274.87 896.187C1281.18 949.232 1276.06 1001.26 1255.91 1051.05C1216.2 1148.83 1146.74 1214.82 1044.23 1242.84C983.575 1259.36 922.912 1256.55 863.617 1236.49C831.274 1225.55 800.842 1210.56 773.385 1190.41C676.345 1118.92 631.785 1022.75 640.35 902.267C643.151 863.936 654.477 827.95 672.025 793.837C672.955 792.227 673.376 790.752 673.984 788.955C678.87 779.749 683.892 771.05 689.1 762.03Z" fill="#28176A"></path> </g> <g clip-path="url(#clip16_51_562)"> <path d="M724.089 -48.5817C733.017 -66.4377 741.201 -83.1777 749.757 -100.29C789.933 -181.758 830.481 -263.598 871.029 -345.066C874.005 -351.39 877.725 -357.342 882.189 -362.55C896.697 -380.034 915.669 -385.614 937.245 -380.406C943.941 -378.546 951.009 -375.942 956.961 -372.594C981.141 -359.574 990.069 -336.138 981.513 -310.098C980.025 -305.634 978.165 -301.17 975.933 -297.078C907.485 -158.694 838.665 -20.3096 770.217 118.074C753.849 151.182 733.389 181.686 705.489 206.982C683.541 226.698 658.617 240.834 629.601 245.67C589.797 252.738 552.969 244.182 520.233 220.746C500.889 206.982 492.333 187.266 497.913 163.83C503.121 141.51 516.513 125.514 539.577 119.562C556.689 115.098 573.429 117.33 588.681 125.886C601.329 132.954 612.489 131.094 623.649 123.282C637.785 113.238 648.201 99.8463 656.757 84.9663C660.105 79.0143 665.313 73.0623 665.313 67.1103C665.313 61.5303 659.733 55.5783 656.385 50.3703C586.077 -63.0897 515.769 -176.55 445.089 -290.01C439.881 -298.566 435.417 -307.494 433.929 -317.538C431.697 -331.674 435.045 -344.322 443.973 -355.482C455.877 -370.362 471.501 -379.29 490.473 -382.266C510.189 -385.242 526.929 -377.802 539.205 -362.178C546.273 -352.878 552.225 -342.462 558.177 -332.418C612.489 -239.79 666.801 -146.79 720.741 -54.1617C721.857 -51.9297 722.601 -50.8137 724.089 -48.5817Z" fill="#28176A"></path> </g> <g clip-path="url(#clip17_51_562)"> <path d="M1065.22 -386.63C1071.54 -385.886 1077.5 -385.514 1083.82 -384.77C1144.08 -380.678 1196.54 -357.614 1243.04 -320.414C1248.62 -315.95 1254.57 -310.742 1258.66 -304.79C1272.42 -285.818 1274.28 -264.986 1263.5 -244.526C1252.34 -223.322 1233.36 -213.65 1209.56 -213.65C1194.3 -213.65 1180.91 -219.602 1169.38 -229.274C1150.78 -244.526 1130.69 -257.918 1107.63 -264.614C1082.7 -272.054 1057.04 -273.914 1031.74 -270.938C941.344 -259.778 873.64 -195.794 858.388 -105.77C846.856 -38.8098 861.736 22.1982 907.492 73.9063C938.368 108.502 977.056 130.078 1023.56 136.03C1067.08 141.61 1108 133.054 1145.57 111.106C1155.62 105.154 1165.29 98.8303 1174.96 92.5063C1193.19 79.8583 1212.9 76.5103 1233.74 85.0663C1254.94 93.9943 1266.1 110.734 1267.59 133.798C1269.08 156.49 1260.15 174.346 1241.92 187.738C1199.14 219.73 1151.52 241.306 1098.33 248.746C993.796 263.254 901.912 236.098 826.396 161.326C781.756 117.058 753.856 63.1182 741.58 1.73823C734.884 -31.7418 732.652 -65.5938 736.372 -99.4458C749.764 -219.23 810.772 -305.906 919.396 -358.73C953.992 -375.47 990.82 -383.654 1029.14 -385.514C1031 -385.514 1032.48 -385.886 1034.34 -386.258C1044.76 -386.63 1054.8 -386.63 1065.22 -386.63Z" fill="#28176A"></path> </g> <g clip-path="url(#clip18_51_562)"> <path d="M1546.65 399.233C1546.28 401.093 1545.91 402.581 1545.54 404.441C1539.96 433.085 1515.78 452.801 1485.65 453.173C1457 453.917 1431.71 434.945 1425.38 407.417C1423.9 401.093 1423.52 394.397 1423.52 388.073C1423.52 273.125 1423.52 158.177 1423.52 43.2286C1423.52 41.3686 1423.52 39.5086 1423.52 37.6486C1423.15 37.6486 1422.78 37.2766 1422.41 37.2766C1421.29 38.3926 1420.18 39.8806 1419.06 40.9966C1313.78 170.825 1208.51 300.653 1102.86 430.481C1086.49 450.569 1064.54 457.265 1039.62 451.685C1015.81 446.105 999.444 431.225 993.12 406.673C991.632 401.465 991.632 396.257 991.632 390.677C991.632 224.393 992.004 57.7366 991.26 -108.547C991.26 -151.699 1034.78 -181.831 1076.82 -166.951C1098.77 -159.139 1114.39 -136.819 1114.76 -113.011C1115.14 -97.7594 1114.76 -82.8794 1114.76 -67.6274C1114.76 35.0446 1114.76 138.089 1114.76 240.761C1114.76 242.621 1114.76 244.109 1114.76 247.457C1116.62 245.225 1117.74 244.109 1118.86 242.993C1224.88 112.793 1330.9 -17.4074 1436.54 -147.235C1462.96 -179.599 1510.94 -178.483 1535.49 -145.375C1541.07 -137.935 1544.42 -129.379 1545.91 -120.079C1545.91 -118.963 1546.65 -117.847 1547.03 -116.731C1546.65 55.1326 1546.65 226.997 1546.65 399.233Z" fill="#28176A"></path> </g> <g clip-path="url(#clip19_51_562)"> <path d="M724.089 582.578C733.017 564.722 741.201 547.982 749.757 530.87C789.933 449.402 830.481 367.562 871.029 286.094C874.005 279.77 877.725 273.818 882.189 268.61C896.697 251.126 915.669 245.546 937.245 250.754C943.941 252.614 951.009 255.218 956.961 258.566C981.141 271.586 990.069 295.022 981.513 321.062C980.025 325.526 978.165 329.99 975.933 334.082C907.485 472.466 838.665 610.851 770.217 749.235C753.849 782.343 733.389 812.847 705.489 838.143C683.541 857.859 658.617 871.995 629.601 876.831C589.797 883.899 552.969 875.343 520.233 851.907C500.889 838.143 492.333 818.427 497.913 794.991C503.121 772.671 516.513 756.675 539.577 750.723C556.689 746.259 573.429 748.491 588.681 757.047C601.329 764.115 612.489 762.255 623.649 754.443C637.785 744.399 648.201 731.006 656.757 716.126C660.105 710.174 665.313 704.223 665.313 698.271C665.313 692.69 659.733 686.738 656.385 681.53C586.077 568.07 515.769 454.61 445.089 341.15C439.881 332.594 435.417 323.666 433.929 313.622C431.697 299.486 435.045 286.838 443.973 275.678C455.877 260.798 471.501 251.87 490.473 248.894C510.189 245.918 526.929 253.358 539.205 268.982C546.273 278.282 552.225 288.698 558.177 298.742C612.489 391.37 666.801 484.37 720.741 576.998C721.857 579.23 722.601 580.346 724.089 582.578Z" fill="#28176A"></path> </g> <g clip-path="url(#clip20_51_562)"> <path d="M787.46 -138.63C793.784 -137.886 799.736 -137.514 806.06 -136.77C866.324 -132.678 918.776 -109.614 965.276 -72.4139C970.856 -67.9499 976.808 -62.7419 980.9 -56.7899C994.664 -37.8179 996.524 -16.9858 985.736 3.47416C974.576 24.6782 955.604 34.3502 931.796 34.3502C916.544 34.3502 903.152 28.3982 891.62 18.7262C873.02 3.47415 852.932 -9.91785 829.868 -16.6139C804.944 -24.0539 779.276 -25.9139 753.98 -22.9379C663.584 -11.7778 595.88 52.2062 580.628 142.23C569.096 209.19 583.976 270.198 629.732 321.906C660.608 356.502 699.296 378.078 745.796 384.03C789.32 389.61 830.24 381.054 867.812 359.106C877.856 353.154 887.528 346.83 897.2 340.506C915.428 327.858 935.144 324.51 955.976 333.066C977.18 341.994 988.34 358.734 989.828 381.798C991.316 404.49 982.388 422.346 964.16 435.738C921.38 467.73 873.764 489.306 820.568 496.746C716.036 511.254 624.152 484.098 548.636 409.326C503.996 365.058 476.096 311.118 463.82 249.738C457.124 216.258 454.892 182.406 458.612 148.554C472.004 28.7701 533.012 -57.9059 641.636 -110.73C676.232 -127.47 713.06 -135.654 751.376 -137.514C753.236 -137.514 754.724 -137.886 756.584 -138.258C767 -138.63 777.044 -138.63 787.46 -138.63Z" fill="#28176A"></path> </g> <g clip-path="url(#clip21_51_562)"> <path d="M1344.53 647.233C1344.16 649.093 1343.79 650.581 1343.42 652.441C1337.84 681.085 1313.66 700.801 1283.53 701.173C1254.88 701.917 1229.59 682.945 1223.26 655.417C1221.78 649.093 1221.4 642.397 1221.4 636.073C1221.4 521.125 1221.4 406.177 1221.4 291.229C1221.4 289.369 1221.4 287.509 1221.4 285.649C1221.03 285.649 1220.66 285.277 1220.29 285.277C1219.17 286.393 1218.06 287.881 1216.94 288.997C1111.66 418.825 1006.39 548.653 900.739 678.481C884.372 698.569 862.424 705.265 837.5 699.685C813.692 694.105 797.324 679.225 791 654.673C789.512 649.465 789.512 644.257 789.512 638.677C789.512 472.393 789.884 305.737 789.14 139.453C789.14 96.3006 832.664 66.1686 874.7 81.0486C896.647 88.8606 912.272 111.181 912.644 134.989C913.016 150.241 912.644 165.121 912.644 180.373C912.644 283.045 912.644 386.089 912.644 488.761C912.644 490.621 912.644 492.109 912.644 495.457C914.504 493.225 915.619 492.109 916.735 490.993C1022.76 360.793 1128.78 230.593 1234.42 100.765C1260.84 68.4006 1308.82 69.5166 1333.37 102.625C1338.95 110.065 1342.3 118.621 1343.79 127.921C1343.79 129.037 1344.53 130.153 1344.91 131.269C1344.53 303.133 1344.53 474.997 1344.53 647.233Z" fill="#28176A"></path> </g> <g clip-path="url(#clip22_51_562)"> <path d="M612.489 617.299C621.417 599.443 629.601 582.703 638.157 565.591C678.333 484.123 718.881 402.283 759.429 320.815C762.405 314.491 766.125 308.539 770.589 303.331C785.097 285.847 804.069 280.267 825.645 285.475C832.341 287.335 839.409 289.939 845.361 293.287C869.541 306.307 878.469 329.743 869.913 355.783C868.425 360.247 866.565 364.711 864.333 368.803C795.885 507.187 727.065 645.571 658.617 783.955C642.249 817.063 621.789 847.567 593.889 872.863C571.941 892.579 547.017 906.715 518.001 911.551C478.198 918.619 441.37 910.063 408.634 886.627C389.29 872.863 380.734 853.147 386.314 829.711C391.522 807.391 404.914 791.395 427.978 785.443C445.09 780.979 461.83 783.211 477.082 791.767C489.73 798.835 500.889 796.975 512.049 789.163C526.185 779.119 536.602 765.727 545.158 750.847C548.506 744.895 553.713 738.943 553.713 732.991C553.713 727.411 548.133 721.459 544.785 716.251C474.478 602.791 404.17 489.331 333.49 375.871C328.282 367.315 323.818 358.387 322.33 348.343C320.098 334.207 323.446 321.559 332.374 310.399C344.278 295.519 359.902 286.591 378.874 283.615C398.59 280.639 415.33 288.079 427.606 303.703C434.674 313.003 440.626 323.419 446.578 333.463C500.89 426.091 555.201 519.091 609.141 611.719C610.257 613.951 611.001 615.067 612.489 617.299Z" fill="#28176A"></path> </g> <g clip-path="url(#clip23_51_562)"> <path d="M906.5 574.37C912.824 575.114 918.776 575.486 925.1 576.23C985.364 580.322 1037.82 603.386 1084.32 640.586C1089.9 645.05 1095.85 650.258 1099.94 656.21C1113.7 675.182 1115.56 696.014 1104.78 716.474C1093.62 737.678 1074.64 747.35 1050.84 747.35C1035.58 747.35 1022.19 741.398 1010.66 731.726C992.06 716.474 971.972 703.082 948.908 696.386C923.984 688.946 898.316 687.086 873.02 690.062C782.624 701.222 714.92 765.206 699.668 855.23C688.136 922.19 703.016 983.198 748.772 1034.91C779.648 1069.5 818.336 1091.08 864.836 1097.03C908.36 1102.61 949.28 1094.05 986.852 1072.11C996.896 1066.15 1006.57 1059.83 1016.24 1053.51C1034.47 1040.86 1054.18 1037.51 1075.02 1046.07C1096.22 1054.99 1107.38 1071.73 1108.87 1094.8C1110.36 1117.49 1101.43 1135.35 1083.2 1148.74C1040.42 1180.73 992.804 1202.31 939.608 1209.75C835.076 1224.25 743.192 1197.1 667.676 1122.33C623.036 1078.06 595.136 1024.12 582.86 962.738C576.164 929.258 573.932 895.406 577.652 861.554C591.044 741.77 652.052 655.094 760.676 602.27C795.272 585.53 832.1 577.346 870.416 575.486C872.276 575.486 873.764 575.114 875.624 574.742C886.04 574.37 896.084 574.37 906.5 574.37Z" fill="#28176A"></path> </g> <g clip-path="url(#clip24_51_562)"> <path d="M1480.94 859.273C1480.56 861.133 1480.19 862.621 1479.82 864.481C1474.24 893.125 1450.06 912.841 1419.93 913.213C1391.28 913.957 1365.99 894.985 1359.66 867.457C1358.18 861.133 1357.8 854.437 1357.8 848.113C1357.8 733.165 1357.8 618.217 1357.8 503.269C1357.8 501.409 1357.8 499.549 1357.8 497.689C1357.43 497.689 1357.06 497.317 1356.69 497.317C1355.57 498.433 1354.46 499.921 1353.34 501.037C1248.06 630.865 1142.79 760.693 1037.14 890.521C1020.77 910.609 998.824 917.305 973.9 911.725C950.092 906.145 933.724 891.265 927.4 866.713C925.912 861.505 925.912 856.297 925.912 850.717C925.912 684.433 926.284 517.777 925.54 351.493C925.54 308.341 969.064 278.209 1011.1 293.089C1033.05 300.901 1048.67 323.221 1049.04 347.029C1049.42 362.281 1049.04 377.161 1049.04 392.413C1049.04 495.085 1049.04 598.129 1049.04 700.801C1049.04 702.661 1049.04 704.149 1049.04 707.497C1050.9 705.265 1052.02 704.149 1053.14 703.033C1159.16 572.833 1265.18 442.633 1370.82 312.805C1397.24 280.441 1445.22 281.557 1469.78 314.665C1475.36 322.105 1478.7 330.661 1480.19 339.961C1480.19 341.077 1480.94 342.193 1481.31 343.309C1480.94 515.173 1480.94 687.037 1480.94 859.273Z" fill="#28176A"></path> </g> <g clip-path="url(#clip25_51_562)"> <path d="M1268 434.462C1269.8 433.854 1271.27 433.433 1273.07 432.825C1300.67 423.335 1329.83 434.418 1345.22 460.327C1360.19 484.761 1356.4 516.154 1335.73 535.395C1330.99 539.845 1325.38 543.515 1319.9 546.677C1220.36 604.151 1120.81 661.626 1021.26 719.1C1019.65 720.03 1018.04 720.96 1016.43 721.89C1016.61 722.212 1016.48 722.72 1016.66 723.042C1018.19 723.451 1020.03 723.673 1021.56 724.081C1186.63 750.339 1351.7 776.597 1516.96 803.176C1542.54 807.307 1559.32 822.967 1566.94 847.342C1574.02 870.75 1569.31 892.365 1551.21 910.118C1547.45 914.01 1542.94 916.615 1538.1 919.405C1394.1 1002.55 1249.58 1085.55 1105.95 1169.34C1068.58 1190.91 1020.72 1168.29 1012.59 1124.44C1008.38 1101.53 1019.9 1076.84 1040.33 1064.61C1053.35 1056.67 1066.43 1049.55 1079.64 1041.92C1168.55 990.585 1257.79 939.063 1346.71 887.727C1348.32 886.797 1349.61 886.053 1352.51 884.379C1349.64 883.884 1348.12 883.476 1346.59 883.067C1180.83 856.352 1015.06 829.636 849.803 803.056C808.569 796.364 785.542 754.248 801.938 716.431C805.591 707.879 811.327 700.701 818.637 694.763C819.604 694.205 820.198 693.002 820.979 692.122C970.003 606.512 1118.84 520.58 1268 434.462Z" fill="#28176A"></path> </g> <g clip-path="url(#clip26_51_562)"> <path d="M1751.63 0.909067C1745.31 13.1851 1739.35 25.8331 1733.03 38.1091C1693.23 118.089 1653.05 198.069 1613.25 278.049C1602.46 299.253 1578.28 312.645 1554.47 310.785C1529.55 308.925 1512.81 296.277 1501.65 274.329C1457.38 186.909 1413.11 99.4891 1368.47 12.4411C1367.35 10.2091 1366.24 8.34907 1365.12 6.11707C1364.75 6.11707 1364.38 6.11707 1364 6.11707C1364 7.97707 1364 9.46508 1364 11.3251C1364 97.2571 1364 183.189 1364 269.121C1364 285.861 1359.91 300.741 1348.38 313.017C1331.27 331.617 1309.69 337.197 1285.88 330.873C1262.45 324.549 1247.57 308.925 1241.99 285.117C1240.87 280.281 1240.5 275.445 1240.5 270.609C1240.5 104.325 1240.5 -61.9589 1240.5 -228.243C1240.5 -258.375 1258.73 -282.183 1286.63 -289.251C1315.64 -296.319 1343.92 -283.299 1357.68 -256.143C1416.46 -140.823 1475.23 -25.1309 1533.64 90.1891C1541.82 106.185 1550.01 122.181 1558.19 138.177C1558.93 139.293 1559.68 140.781 1560.79 142.641C1561.91 140.781 1562.65 139.293 1563.4 137.433C1628.5 6.48905 1693.23 -124.827 1758.33 -255.771C1769.49 -278.463 1788.09 -291.111 1813.75 -291.111C1837.93 -291.111 1856.53 -280.323 1868.81 -259.119C1874.02 -250.191 1875.88 -240.147 1875.88 -229.731C1875.88 -86.139 1875.88 57.4531 1875.88 200.673C1875.88 224.481 1875.88 248.661 1875.88 272.469C1875.88 301.485 1853.19 327.525 1824.17 331.989C1793.67 336.825 1764.28 319.341 1755.72 290.697C1753.49 283.629 1752.75 276.189 1752.75 268.749C1752.37 181.329 1752.75 93.5371 1752.75 6.11707C1752.75 4.25707 1752.75 2.39707 1752.75 0.537072C1752.37 0.909073 1752 0.909067 1751.63 0.909067Z" fill="#28176A"></path> </g> <g clip-path="url(#clip27_51_562)"> <path d="M1811.04 115.942C1811.04 118.918 1811.04 120.778 1811.04 123.01C1811.04 269.206 1811.04 415.03 1811.04 561.226C1811.04 582.43 1803.22 599.914 1786.11 612.562C1750.77 638.23 1695.72 621.118 1688.28 572.386C1687.53 567.922 1687.9 563.086 1687.9 558.622C1687.9 413.542 1687.9 268.462 1687.9 123.01C1687.9 115.198 1688.28 116.314 1681.21 116.314C1636.94 116.314 1592.67 116.314 1548.78 116.314C1537.24 116.314 1526.08 114.082 1515.67 108.13C1495.95 96.598 1488.14 78.37 1488.51 56.422C1489.26 27.778 1507.48 6.946 1535.76 1.366C1540.22 0.622001 1544.68 0.25 1549.15 0.25C1682.7 0.25 1815.87 0.25 1949.42 0.25C1981.78 0.25 2002.24 22.198 2007.45 41.542C2018.24 80.23 1991.46 115.942 1950.54 116.314C1906.27 116.314 1862 116.314 1817.73 116.314C1815.5 115.942 1813.64 115.942 1811.04 115.942Z" fill="#28176A"></path> </g> <g clip-path="url(#clip28_51_562)"> <path d="M1511.07 194.349C1504.75 206.625 1498.79 219.273 1492.47 231.549C1452.67 311.529 1412.49 391.509 1372.69 471.489C1361.9 492.693 1337.72 506.085 1313.91 504.225C1288.99 502.365 1272.25 489.717 1261.09 467.769C1216.82 380.349 1172.55 292.929 1127.91 205.881C1126.79 203.649 1125.68 201.789 1124.56 199.557C1124.19 199.557 1123.82 199.557 1123.44 199.557C1123.44 201.417 1123.44 202.905 1123.44 204.765C1123.44 290.697 1123.44 376.629 1123.44 462.561C1123.44 479.301 1119.35 494.181 1107.82 506.457C1090.71 525.057 1069.13 530.637 1045.32 524.313C1021.89 517.989 1007.01 502.365 1001.43 478.557C1000.31 473.721 999.94 468.885 999.94 464.049C999.94 297.765 999.94 131.481 999.94 -34.803C999.94 -64.935 1018.17 -88.743 1046.07 -95.811C1075.08 -102.879 1103.36 -89.8591 1117.12 -62.703C1175.9 52.617 1234.67 168.309 1293.08 283.629C1301.26 299.625 1309.45 315.621 1317.63 331.617C1318.37 332.733 1319.12 334.221 1320.23 336.081C1321.35 334.221 1322.09 332.733 1322.84 330.873C1387.94 199.929 1452.67 68.613 1517.77 -62.331C1528.93 -85.023 1547.53 -97.671 1573.2 -97.671C1597.38 -97.671 1615.98 -86.883 1628.25 -65.679C1633.46 -56.751 1635.32 -46.707 1635.32 -36.291C1635.32 107.301 1635.32 250.893 1635.32 394.113C1635.32 417.921 1635.32 442.101 1635.32 465.909C1635.32 494.925 1612.63 520.965 1583.61 525.429C1553.11 530.265 1523.72 512.781 1515.16 484.137C1512.93 477.069 1512.19 469.629 1512.19 462.189C1511.81 374.769 1512.19 286.977 1512.19 199.557C1512.19 197.697 1512.19 195.837 1512.19 193.977C1511.81 194.349 1511.44 194.349 1511.07 194.349Z" fill="#28176A"></path> </g> <g clip-path="url(#clip29_51_562)"> <path d="M1611.4 363.942C1611.4 366.918 1611.4 368.778 1611.4 371.01C1611.4 517.206 1611.4 663.03 1611.4 809.226C1611.4 830.43 1603.58 847.914 1586.47 860.562C1551.13 886.23 1496.08 869.118 1488.64 820.386C1487.89 815.922 1488.26 811.086 1488.26 806.622C1488.26 661.542 1488.26 516.462 1488.26 371.01C1488.26 363.198 1488.64 364.314 1481.57 364.314C1437.3 364.314 1393.03 364.314 1349.14 364.314C1337.6 364.314 1326.44 362.082 1316.03 356.13C1296.31 344.598 1288.5 326.37 1288.87 304.422C1289.62 275.778 1307.84 254.946 1336.12 249.366C1340.58 248.622 1345.04 248.25 1349.51 248.25C1483.06 248.25 1616.23 248.25 1749.78 248.25C1782.14 248.25 1802.6 270.198 1807.81 289.542C1818.6 328.23 1791.82 363.942 1750.9 364.314C1706.63 364.314 1662.36 364.314 1618.09 364.314C1615.86 363.942 1614 363.942 1611.4 363.942Z" fill="#28176A"></path> </g> <g clip-path="url(#clip30_51_562)"> <path d="M1364.75 582.469C1358.43 594.745 1352.47 607.393 1346.15 619.669C1306.35 699.649 1266.17 779.629 1226.37 859.609C1215.58 880.813 1191.4 894.205 1167.59 892.345C1142.67 890.485 1125.93 877.837 1114.77 855.889C1070.5 768.469 1026.23 681.049 981.589 594.001C980.473 591.769 979.357 589.909 978.241 587.677C977.869 587.677 977.497 587.677 977.125 587.677C977.125 589.537 977.125 591.025 977.125 592.885C977.125 678.817 977.125 764.749 977.125 850.681C977.125 867.421 973.033 882.301 961.501 894.577C944.389 913.177 922.812 918.757 899.004 912.433C875.568 906.109 860.688 890.485 855.108 866.677C853.992 861.841 853.62 857.005 853.62 852.169C853.62 685.885 853.62 519.601 853.62 353.317C853.62 323.185 871.848 299.377 899.748 292.309C928.764 285.241 957.037 298.261 970.801 325.417C1029.58 440.737 1088.35 556.429 1146.76 671.749C1154.94 687.745 1163.13 703.741 1171.31 719.737C1172.05 720.853 1172.8 722.341 1173.91 724.201C1175.03 722.341 1175.77 720.853 1176.52 718.993C1241.62 588.049 1306.35 456.733 1371.45 325.789C1382.61 303.097 1401.21 290.449 1426.87 290.449C1451.05 290.449 1469.65 301.237 1481.93 322.441C1487.14 331.369 1489 341.413 1489 351.829C1489 495.421 1489 639.013 1489 782.233C1489 806.041 1489 830.221 1489 854.029C1489 883.045 1466.31 909.085 1437.29 913.549C1406.79 918.385 1377.4 900.901 1368.84 872.257C1366.61 865.189 1365.87 857.749 1365.87 850.309C1365.49 762.889 1365.87 675.097 1365.87 587.677C1365.87 585.817 1365.87 583.957 1365.87 582.097C1365.49 582.469 1365.12 582.469 1364.75 582.469Z" fill="#28176A"></path> </g> <g clip-path="url(#clip31_51_562)"> <path d="M1309.36 868.499C1321.63 874.823 1334.28 880.775 1346.56 887.099C1426.54 926.903 1506.52 967.079 1586.5 1006.88C1607.7 1017.67 1621.09 1041.85 1619.23 1065.66C1617.37 1090.58 1604.73 1107.32 1582.78 1118.48C1495.36 1162.75 1407.94 1207.02 1320.89 1251.66C1318.66 1252.78 1316.8 1253.89 1314.57 1255.01C1314.57 1255.38 1314.57 1255.75 1314.57 1256.12C1316.43 1256.12 1317.91 1256.12 1319.77 1256.12C1405.71 1256.12 1491.64 1256.12 1577.57 1256.12C1594.31 1256.12 1609.19 1260.22 1621.47 1271.75C1640.07 1288.86 1645.65 1310.44 1639.32 1334.24C1633 1357.68 1617.37 1372.56 1593.57 1378.14C1588.73 1379.26 1583.89 1379.63 1579.06 1379.63C1412.77 1379.63 1246.49 1379.63 1080.21 1379.63C1050.07 1379.63 1026.27 1361.4 1019.2 1333.5C1012.13 1304.48 1025.15 1276.21 1052.31 1262.45C1167.63 1203.67 1283.32 1144.9 1398.64 1086.49C1414.63 1078.31 1430.63 1070.12 1446.63 1061.94C1447.74 1061.2 1449.23 1060.45 1451.09 1059.34C1449.23 1058.22 1447.74 1057.48 1445.88 1056.73C1314.94 991.631 1183.62 926.903 1052.68 861.803C1029.99 850.643 1017.34 832.042 1017.34 806.374C1017.34 782.194 1028.13 763.594 1049.33 751.318C1058.26 746.11 1068.3 744.25 1078.72 744.25C1222.31 744.25 1365.9 744.25 1509.12 744.25C1532.93 744.25 1557.11 744.25 1580.92 744.25C1609.93 744.25 1635.97 766.942 1640.44 795.958C1645.27 826.462 1627.79 855.851 1599.15 864.407C1592.08 866.639 1584.64 867.383 1577.2 867.383C1489.78 867.755 1401.99 867.383 1314.57 867.383C1312.71 867.383 1310.85 867.383 1308.99 867.383C1309.36 867.755 1309.36 868.127 1309.36 868.499Z" fill="#28176A"></path> </g> <g clip-path="url(#clip32_51_562)"> <path d="M1220.08 923.058C1232.35 929.382 1245 935.334 1257.28 941.658C1337.26 981.462 1417.24 1021.64 1497.22 1061.44C1518.42 1072.23 1531.81 1096.41 1529.95 1120.22C1528.09 1145.14 1515.45 1161.88 1493.5 1173.04C1406.08 1217.31 1318.66 1261.58 1231.61 1306.22C1229.38 1307.34 1227.52 1308.45 1225.29 1309.57C1225.29 1309.94 1225.29 1310.31 1225.29 1310.68C1227.15 1310.68 1228.63 1310.68 1230.49 1310.68C1316.43 1310.68 1402.36 1310.68 1488.29 1310.68C1505.03 1310.68 1519.91 1314.78 1532.19 1326.31C1550.79 1343.42 1556.37 1365 1550.04 1388.8C1543.72 1412.24 1528.09 1427.12 1504.29 1432.7C1499.45 1433.82 1494.61 1434.19 1489.78 1434.19C1323.49 1434.19 1157.21 1434.19 990.926 1434.19C960.794 1434.19 936.986 1415.96 929.918 1388.06C922.85 1359.04 935.87 1330.77 963.026 1317.01C1078.35 1258.23 1194.04 1199.46 1309.36 1141.05C1325.35 1132.87 1341.35 1124.68 1357.35 1116.5C1358.46 1115.76 1359.95 1115.01 1361.81 1113.89C1359.95 1112.78 1358.46 1112.04 1356.6 1111.29C1225.66 1046.19 1094.34 981.462 963.398 916.362C940.706 905.202 928.058 886.602 928.058 860.934C928.058 836.754 938.846 818.154 960.05 805.878C968.978 800.67 979.022 798.81 989.438 798.81C1133.03 798.81 1276.62 798.81 1419.84 798.81C1443.65 798.81 1467.83 798.81 1491.64 798.81C1520.65 798.81 1546.69 821.502 1551.16 850.518C1555.99 881.022 1538.51 910.41 1509.87 918.966C1502.8 921.198 1495.36 921.942 1487.92 921.942C1400.5 922.314 1312.71 921.942 1225.29 921.942C1223.43 921.942 1221.57 921.942 1219.71 921.942C1220.08 922.314 1220.08 922.686 1220.08 923.058Z" fill="#28176A"></path> </g> <g clip-path="url(#clip33_51_562)"> <path d="M1649.57 880.524C1647.46 882.628 1646.15 883.944 1644.57 885.522C1541.19 988.898 1438.08 1092.01 1334.7 1195.39C1319.71 1210.38 1301.82 1217.22 1280.78 1214.06C1237.64 1207.22 1210.81 1156.19 1240.01 1116.47C1242.64 1112.79 1246.32 1109.64 1249.48 1106.48C1352.06 1003.89 1454.65 901.305 1557.5 798.455C1563.02 792.931 1562.5 793.983 1557.5 788.985C1526.2 757.683 1494.9 726.381 1463.86 695.342C1455.7 687.187 1449.39 677.718 1446.23 666.144C1440.45 644.048 1447.81 625.635 1463.59 610.378C1484.37 590.65 1511.99 588.809 1535.93 604.854C1539.61 607.485 1543.03 610.378 1546.19 613.535C1640.62 707.967 1734.79 802.137 1829.22 896.57C1852.11 919.454 1851.06 949.441 1841.06 966.802C1821.33 1001.79 1777.14 1008.1 1747.94 979.428C1716.64 948.126 1685.34 916.824 1654.04 885.522C1652.72 883.681 1651.41 882.365 1649.57 880.524Z" fill="#28176A"></path> </g> <g clip-path="url(#clip34_51_562)"> <path d="M1674.64 637.982C1674.64 640.958 1674.64 642.818 1674.64 645.05C1674.64 791.246 1674.64 937.07 1674.64 1083.27C1674.64 1104.47 1666.82 1121.95 1649.71 1134.6C1614.37 1160.27 1559.32 1143.16 1551.88 1094.43C1551.13 1089.96 1551.5 1085.13 1551.5 1080.66C1551.5 935.582 1551.5 790.502 1551.5 645.05C1551.5 637.238 1551.88 638.354 1544.81 638.354C1500.54 638.354 1456.27 638.354 1412.38 638.354C1400.84 638.354 1389.68 636.122 1379.27 630.17C1359.55 618.638 1351.74 600.41 1352.11 578.462C1352.86 549.818 1371.08 528.986 1399.36 523.406C1403.82 522.662 1408.28 522.29 1412.75 522.29C1546.3 522.29 1679.47 522.29 1813.02 522.29C1845.38 522.29 1865.84 544.238 1871.05 563.582C1881.84 602.27 1855.06 637.982 1814.14 638.354C1769.87 638.354 1725.6 638.354 1681.33 638.354C1679.1 637.982 1677.24 637.982 1674.64 637.982Z" fill="#28176A"></path> </g> <g clip-path="url(#clip35_51_562)"> <path d="M1995.02 1026.31C2009.96 1039.56 2024.01 1051.79 2038.32 1064.49C2106.62 1124.38 2175.17 1184.73 2243.37 1244.98C2248.71 1249.49 2253.49 1254.62 2257.37 1260.28C2270.5 1278.82 2270.98 1298.59 2260.37 1318.09C2256.84 1324.07 2252.49 1330.23 2247.72 1335.11C2228.88 1355.09 2203.94 1357.65 2181 1342.65C2177.07 1340.06 2173.24 1337.1 2169.87 1333.89C2053.91 1231.96 1938.06 1129.67 1822.1 1027.73C1794.36 1003.35 1770.19 975.696 1752.98 942.2C1739.61 915.897 1732.41 888.163 1735.25 858.884C1738.72 818.607 1756.52 785.249 1787.63 759.694C1805.93 744.572 1827.19 741.41 1848.38 752.866C1868.59 763.673 1880.58 780.749 1880.36 804.567C1880.24 822.252 1873.75 837.843 1861.54 850.361C1851.44 860.749 1850.35 872.01 1855.01 884.812C1861.05 901.065 1871.29 914.593 1883.45 926.708C1888.33 931.483 1892.73 938.054 1898.48 939.594C1903.87 941.038 1911.06 937.189 1916.96 935.303C2044.75 896.757 2172.54 858.21 2300.43 819.304C2310.04 816.488 2319.82 814.487 2329.91 815.649C2344.14 817.152 2355.49 823.659 2363.96 835.171C2375.25 850.521 2379.83 867.923 2377.8 887.019C2375.57 906.834 2364.05 921.078 2345.78 928.891C2334.97 933.312 2323.37 936.365 2312.12 939.515C2208.6 968.002 2104.71 996.393 2001.28 1024.52C1998.83 1025.02 1997.56 1025.45 1995.02 1026.31Z" fill="#28176A"></path> </g> <g clip-path="url(#clip36_51_562)"> <path d="M1818.21 1020.64C1816.1 1022.75 1814.79 1024.06 1813.21 1025.64C1709.83 1129.02 1606.72 1232.13 1503.34 1335.51C1488.35 1350.5 1470.46 1357.34 1449.42 1354.18C1406.28 1347.34 1379.45 1296.31 1408.65 1256.59C1411.28 1252.91 1414.96 1249.76 1418.12 1246.6C1520.7 1144.01 1623.29 1041.42 1726.14 938.575C1731.66 933.051 1731.14 934.103 1726.14 929.105C1694.84 897.803 1663.54 866.501 1632.5 835.462C1624.34 827.307 1618.03 817.838 1614.87 806.264C1609.09 784.168 1616.45 765.755 1632.23 750.499C1653.02 730.77 1680.63 728.929 1704.57 744.975C1708.25 747.605 1711.67 750.498 1714.83 753.655C1809.26 848.088 1903.43 942.257 1997.86 1036.69C2020.75 1059.57 2019.7 1089.56 2009.7 1106.92C1989.97 1141.91 1945.78 1148.22 1916.58 1119.55C1885.28 1088.25 1853.98 1056.94 1822.68 1025.64C1821.36 1023.8 1820.05 1022.49 1818.21 1020.64Z" fill="#28176A"></path> </g> <g clip-path="url(#clip37_51_562)"> <path d="M1878.46 1073.43C1893.39 1086.68 1907.44 1098.91 1921.76 1111.61C1990.05 1171.5 2058.61 1231.85 2126.81 1292.1C2132.15 1296.61 2136.93 1301.74 2140.81 1307.4C2153.94 1325.94 2154.42 1345.71 2143.81 1365.21C2140.28 1371.19 2135.93 1377.35 2131.16 1382.23C2112.32 1402.21 2087.37 1404.77 2064.44 1389.77C2060.51 1387.18 2056.68 1384.22 2053.3 1381.01C1937.35 1279.08 1821.49 1176.79 1705.54 1074.85C1677.8 1050.47 1653.63 1022.82 1636.41 989.32C1623.05 963.017 1615.85 935.283 1618.69 906.005C1622.16 865.728 1639.96 832.369 1671.07 806.814C1689.37 791.692 1710.63 788.53 1731.82 799.986C1752.03 810.793 1764.02 827.869 1763.8 851.687C1763.68 869.372 1757.19 884.963 1744.98 897.481C1734.88 907.869 1733.79 919.13 1738.44 931.932C1744.49 948.186 1754.73 961.713 1766.89 973.829C1771.77 978.603 1776.17 985.174 1781.92 986.714C1787.31 988.159 1794.5 984.309 1800.4 982.423C1928.19 943.877 2055.98 905.33 2183.87 866.424C2193.48 863.608 2203.26 861.607 2213.35 862.769C2227.58 864.272 2238.93 870.779 2247.4 882.292C2258.69 897.641 2263.27 915.044 2261.23 934.139C2259.01 953.954 2247.49 968.198 2229.22 976.012C2218.41 980.432 2206.8 983.485 2195.56 986.635C2092.03 1015.12 1988.15 1043.51 1884.71 1071.64C1882.27 1072.14 1881 1072.57 1878.46 1073.43Z" fill="#28176A"></path> </g> <g clip-path="url(#clip38_51_562)"> <path d="M1964.09 -48.5817C1973.02 -66.4377 1981.2 -83.1777 1989.76 -100.29C2029.93 -181.758 2070.48 -263.598 2111.03 -345.066C2114 -351.39 2117.72 -357.342 2122.19 -362.55C2136.7 -380.034 2155.67 -385.614 2177.24 -380.406C2183.94 -378.546 2191.01 -375.942 2196.96 -372.594C2221.14 -359.574 2230.07 -336.138 2221.51 -310.098C2220.02 -305.634 2218.16 -301.17 2215.93 -297.078C2147.48 -158.694 2078.66 -20.3096 2010.22 118.074C1993.85 151.182 1973.39 181.686 1945.49 206.982C1923.54 226.698 1898.62 240.834 1869.6 245.67C1829.8 252.738 1792.97 244.182 1760.23 220.746C1740.89 206.982 1732.33 187.266 1737.91 163.83C1743.12 141.51 1756.51 125.514 1779.58 119.562C1796.69 115.098 1813.43 117.33 1828.68 125.886C1841.33 132.954 1852.49 131.094 1863.65 123.282C1877.79 113.238 1888.2 99.8463 1896.76 84.9663C1900.11 79.0143 1905.31 73.0623 1905.31 67.1103C1905.31 61.5303 1899.73 55.5783 1896.39 50.3703C1826.08 -63.0897 1755.77 -176.55 1685.09 -290.01C1679.88 -298.566 1675.42 -307.494 1673.93 -317.538C1671.7 -331.674 1675.05 -344.322 1683.97 -355.482C1695.88 -370.362 1711.5 -379.29 1730.47 -382.266C1750.19 -385.242 1766.93 -377.802 1779.21 -362.178C1786.27 -352.878 1792.23 -342.462 1798.18 -332.418C1852.49 -239.79 1906.8 -146.79 1960.74 -54.1617C1961.86 -51.9297 1962.6 -50.8137 1964.09 -48.5817Z" fill="#28176A"></path> </g> <g clip-path="url(#clip39_51_562)"> <path d="M1964.09 582.578C1973.02 564.722 1981.2 547.982 1989.76 530.87C2029.93 449.402 2070.48 367.562 2111.03 286.094C2114 279.77 2117.72 273.818 2122.19 268.61C2136.7 251.126 2155.67 245.546 2177.24 250.754C2183.94 252.614 2191.01 255.218 2196.96 258.566C2221.14 271.586 2230.07 295.022 2221.51 321.062C2220.02 325.526 2218.16 329.99 2215.93 334.082C2147.48 472.466 2078.66 610.851 2010.22 749.235C1993.85 782.343 1973.39 812.847 1945.49 838.143C1923.54 857.859 1898.62 871.995 1869.6 876.831C1829.8 883.899 1792.97 875.343 1760.23 851.907C1740.89 838.143 1732.33 818.427 1737.91 794.991C1743.12 772.671 1756.51 756.675 1779.58 750.723C1796.69 746.259 1813.43 748.491 1828.68 757.047C1841.33 764.115 1852.49 762.255 1863.65 754.443C1877.79 744.399 1888.2 731.006 1896.76 716.126C1900.11 710.174 1905.31 704.223 1905.31 698.271C1905.31 692.69 1899.73 686.738 1896.39 681.53C1826.08 568.07 1755.77 454.61 1685.09 341.15C1679.88 332.594 1675.42 323.666 1673.93 313.622C1671.7 299.486 1675.05 286.838 1683.97 275.678C1695.88 260.798 1711.5 251.87 1730.47 248.894C1750.19 245.918 1766.93 253.358 1779.21 268.982C1786.27 278.282 1792.23 288.698 1798.18 298.742C1852.49 391.37 1906.8 484.37 1960.74 576.998C1961.86 579.23 1962.6 580.346 1964.09 582.578Z" fill="#28176A"></path> </g> <g clip-path="url(#clip40_51_562)"> <path d="M1852.49 617.299C1861.42 599.443 1869.6 582.703 1878.16 565.591C1918.33 484.123 1958.88 402.283 1999.43 320.815C2002.41 314.491 2006.13 308.539 2010.59 303.331C2025.1 285.847 2044.07 280.267 2065.65 285.475C2072.34 287.335 2079.41 289.939 2085.36 293.287C2109.54 306.307 2118.47 329.743 2109.91 355.783C2108.42 360.247 2106.56 364.711 2104.33 368.803C2035.89 507.187 1967.07 645.571 1898.62 783.955C1882.25 817.063 1861.79 847.567 1833.89 872.863C1811.94 892.579 1787.02 906.715 1758 911.551C1718.2 918.619 1681.37 910.063 1648.63 886.627C1629.29 872.863 1620.73 853.147 1626.31 829.711C1631.52 807.391 1644.91 791.395 1667.98 785.443C1685.09 780.979 1701.83 783.211 1717.08 791.767C1729.73 798.835 1740.89 796.975 1752.05 789.163C1766.19 779.119 1776.6 765.727 1785.16 750.847C1788.51 744.895 1793.71 738.943 1793.71 732.991C1793.71 727.411 1788.13 721.459 1784.79 716.251C1714.48 602.791 1644.17 489.331 1573.49 375.871C1568.28 367.315 1563.82 358.387 1562.33 348.343C1560.1 334.207 1563.45 321.559 1572.37 310.399C1584.28 295.519 1599.9 286.591 1618.87 283.615C1638.59 280.639 1655.33 288.079 1667.61 303.703C1674.67 313.003 1680.63 323.419 1686.58 333.463C1740.89 426.091 1795.2 519.091 1849.14 611.719C1850.26 613.951 1851 615.067 1852.49 617.299Z" fill="#28176A"></path> </g> </g> <defs> <clipPath id="clip0_51_562"> <rect width="1754" height="1240" fill="white"></rect> </clipPath> <clipPath id="clip1_51_562"> <rect width="248" height="248" fill="white" transform="translate(0.5 0.25)"></rect> </clipPath> <clipPath id="clip2_51_562"> <rect width="248" height="248" fill="white" transform="translate(248.5 0.25)"></rect> </clipPath> <clipPath id="clip3_51_562"> <rect width="248" height="248" fill="white" transform="translate(0.5 248.25)"></rect> </clipPath> <clipPath id="clip4_51_562"> <rect width="248" height="248" fill="white" transform="translate(248.5 248.25)"></rect> </clipPath> <clipPath id="clip5_51_562"> <rect width="248" height="248" fill="white" transform="translate(0.5 496.25)"></rect> </clipPath> <clipPath id="clip6_51_562"> <rect width="248" height="248" fill="white" transform="translate(0.5 744.25)"></rect> </clipPath> <clipPath id="clip7_51_562"> <rect width="248" height="248" fill="white" transform="translate(0.5 992.25)"></rect> </clipPath> <clipPath id="clip8_51_562"> <rect width="248" height="248" fill="white" transform="translate(248.5 744.25)"></rect> </clipPath> <clipPath id="clip9_51_562"> <rect width="248" height="248" fill="white" transform="translate(248.5 496.25)"></rect> </clipPath> <clipPath id="clip10_51_562"> <rect width="248" height="248" fill="white" transform="translate(496.5 744.25)"></rect> </clipPath> <clipPath id="clip11_51_562"> <rect width="248" height="248" fill="white" transform="translate(248.5 992.25)"></rect> </clipPath> <clipPath id="clip12_51_562"> <rect width="248" height="248" fill="white" transform="translate(744.5 744.25)"></rect> </clipPath> <clipPath id="clip13_51_562"> <rect width="248" height="248" fill="white" transform="translate(992.5 744.25)"></rect> </clipPath> <clipPath id="clip14_51_562"> <rect width="248" height="248" fill="white" transform="translate(496.5 992.25)"></rect> </clipPath> <clipPath id="clip15_51_562"> <rect width="248" height="248" fill="white" transform="translate(744.5 992.25)"></rect> </clipPath> <clipPath id="clip16_51_562"> <rect width="248" height="248" fill="white" transform="translate(496.5 0.25)"></rect> </clipPath> <clipPath id="clip17_51_562"> <rect width="248" height="248" fill="white" transform="translate(744.5 0.25)"></rect> </clipPath> <clipPath id="clip18_51_562"> <rect width="248" height="248" fill="white" transform="translate(992.5 0.25)"></rect> </clipPath> <clipPath id="clip19_51_562"> <rect width="248" height="248" fill="white" transform="translate(496.5 248.25)"></rect> </clipPath> <clipPath id="clip20_51_562"> <rect width="248" height="248" fill="white" transform="translate(744.5 248.25)"></rect> </clipPath> <clipPath id="clip21_51_562"> <rect width="248" height="248" fill="white" transform="translate(992.5 248.25)"></rect> </clipPath> <clipPath id="clip22_51_562"> <rect width="248" height="248" fill="white" transform="translate(496.5 496.25)"></rect> </clipPath> <clipPath id="clip23_51_562"> <rect width="248" height="248" fill="white" transform="translate(744.5 496.25)"></rect> </clipPath> <clipPath id="clip24_51_562"> <rect width="248" height="248" fill="white" transform="translate(992.5 496.25)"></rect> </clipPath> <clipPath id="clip25_51_562"> <rect width="248" height="248" fill="white" transform="translate(992.5 992.25)"></rect> </clipPath> <clipPath id="clip26_51_562"> <rect width="248" height="248" fill="white" transform="translate(1240.5 0.25)"></rect> </clipPath> <clipPath id="clip27_51_562"> <rect width="248" height="248" fill="white" transform="translate(1488.5 0.25)"></rect> </clipPath> <clipPath id="clip28_51_562"> <rect width="248" height="248" fill="white" transform="translate(1240.5 248.25)"></rect> </clipPath> <clipPath id="clip29_51_562"> <rect width="248" height="248" fill="white" transform="translate(1488.5 248.25)"></rect> </clipPath> <clipPath id="clip30_51_562"> <rect width="248" height="248" fill="white" transform="translate(1240.5 496.25)"></rect> </clipPath> <clipPath id="clip31_51_562"> <rect width="248" height="248" fill="white" transform="translate(1240.5 744.25)"></rect> </clipPath> <clipPath id="clip32_51_562"> <rect width="248" height="248" fill="white" transform="translate(1240.5 992.25)"></rect> </clipPath> <clipPath id="clip33_51_562"> <rect width="248" height="248" fill="white" transform="translate(1488.5 744.25)"></rect> </clipPath> <clipPath id="clip34_51_562"> <rect width="248" height="248" fill="white" transform="translate(1488.5 496.25)"></rect> </clipPath> <clipPath id="clip35_51_562"> <rect width="248" height="248" fill="white" transform="translate(1736.5 744.25)"></rect> </clipPath> <clipPath id="clip36_51_562"> <rect width="248" height="248" fill="white" transform="translate(1488.5 992.25)"></rect> </clipPath> <clipPath id="clip37_51_562"> <rect width="248" height="248" fill="white" transform="translate(1736.5 992.25)"></rect> </clipPath> <clipPath id="clip38_51_562"> <rect width="248" height="248" fill="white" transform="translate(1736.5 0.25)"></rect> </clipPath> <clipPath id="clip39_51_562"> <rect width="248" height="248" fill="white" transform="translate(1736.5 248.25)"></rect> </clipPath> <clipPath id="clip40_51_562"> <rect width="248" height="248" fill="white" transform="translate(1736.5 496.25)"></rect> </clipPath> </defs> </svg> 